<svg width="26" height="26" viewBox="0 0 26 26" fill="none" xmlns="http://www.w3.org/2000/svg">
<path d="M13.0003 18.5714C15.5645 18.5714 17.6431 16.4927 17.6431 13.9286C17.6431 11.3644 15.5645 9.28571 13.0003 9.28571C10.4361 9.28571 8.35742 11.3644 8.35742 13.9286C8.35742 16.4927 10.4361 18.5714 13.0003 18.5714Z" stroke="white" stroke-width="2.22857" stroke-miterlimit="10" stroke-linecap="square"/>
<path d="M21.3576 22.2857L4.64328 22.2857C4.15073 22.2857 3.67836 22.0901 3.33008 21.7418C2.9818 21.3935 2.78613 20.9211 2.78613 20.4286L2.78613 8.35715C2.78613 7.86461 2.9818 7.39223 3.33008 7.04395C3.67836 6.69567 4.15073 6.50001 4.64328 6.50001L8.35756 6.50001L10.2147 3.71429L15.7861 3.71429L17.6433 6.50001L21.3576 6.50001C21.8501 6.50001 22.3225 6.69567 22.6708 7.04395C23.019 7.39223 23.2147 7.86461 23.2147 8.35715L23.2147 20.4286C23.2147 20.9211 23.019 21.3935 22.6708 21.7418C22.3225 22.0901 21.8501 22.2857 21.3576 22.2857Z" stroke="white" stroke-width="2.22857" stroke-miterlimit="10" stroke-linecap="square"/>
<path d="M5.57115 10.2143C6.08399 10.2143 6.49972 9.79852 6.49972 9.28569C6.49972 8.77285 6.08399 8.35712 5.57115 8.35712C5.05831 8.35712 4.64258 8.77285 4.64258 9.28569C4.64258 9.79852 5.05831 10.2143 5.57115 10.2143Z" fill="white"/>
</svg>
