<svg width="16" height="16" viewBox="0 0 16 16" fill="none" xmlns="http://www.w3.org/2000/svg">
<path d="M1.92731 8.67602C1.7887 8.47785 1.71436 8.24185 1.71436 8.00002C1.71436 7.75818 1.7887 7.52219 1.92731 7.32402C2.82617 6.05145 5.03931 3.42859 7.99988 3.42859C10.9605 3.42859 13.1736 6.05145 14.0725 7.32402C14.2111 7.52219 14.2854 7.75818 14.2854 8.00002C14.2854 8.24185 14.2111 8.47785 14.0725 8.67602C13.1736 9.94859 10.9605 12.5714 7.99988 12.5714C5.03931 12.5714 2.82617 9.94859 1.92731 8.67602Z" stroke="#9095A0" stroke-width="1.37143" stroke-miterlimit="10" stroke-linecap="square"/>
<path d="M8.00007 10.2857C9.26244 10.2857 10.2858 9.26231 10.2858 7.99995C10.2858 6.73758 9.26244 5.71423 8.00007 5.71423C6.7377 5.71423 5.71436 6.73758 5.71436 7.99995C5.71436 9.26231 6.7377 10.2857 8.00007 10.2857Z" stroke="#9095A0" stroke-width="1.37143" stroke-miterlimit="10" stroke-linecap="square"/>
<path d="M2.28564 13.7143L13.7142 2.28577" stroke="#9095A0" stroke-width="1.37143" stroke-miterlimit="10" stroke-linecap="square"/>
</svg>
