<svg width="24" height="24" viewBox="0 0 24 24" fill="none" xmlns="http://www.w3.org/2000/svg">
<path d="M19.7144 18.8571L4.28585 18.8571C4.05853 18.8571 3.84051 18.9474 3.67976 19.1082C3.51902 19.2689 3.42871 19.4869 3.42871 19.7143L3.42871 22.2857L20.5716 22.2857V19.7143C20.5716 19.4869 20.4813 19.2689 20.3205 19.1082C20.1598 18.9474 19.9418 18.8571 19.7144 18.8571Z" fill="white"/>
<path d="M4.27461 9.42857L6.17146 17.1429L17.8372 17.1429L19.7297 9.42857C20.1118 9.42776 20.4828 9.30024 20.7846 9.06599C21.0864 8.83175 21.3019 8.50401 21.3975 8.13411C21.4931 7.76422 21.4632 7.37308 21.3127 7.02196C21.1621 6.67084 20.8993 6.37959 20.5655 6.19382C20.2317 6.00806 19.8456 5.93828 19.4679 5.99542C19.0901 6.05256 18.742 6.23339 18.4781 6.50958C18.2141 6.78577 18.0492 7.14172 18.0093 7.52166C17.9693 7.9016 18.0565 8.28406 18.2572 8.60914L14.9743 12.0591L12.8315 4.92085C13.1644 4.7372 13.4268 4.44806 13.5775 4.09894C13.7281 3.74981 13.7584 3.36051 13.6636 2.99228C13.5688 2.62406 13.3542 2.29781 13.0537 2.06487C12.7531 1.83192 12.3837 1.70551 12.0035 1.70551C11.6232 1.70551 11.2538 1.83192 10.9532 2.06487C10.6527 2.29781 10.4382 2.62406 10.3433 2.99228C10.2485 3.36051 10.2788 3.74981 10.4294 4.09894C10.5801 4.44806 10.8425 4.7372 11.1755 4.92085L9.03261 12.0591L5.74289 8.60914C5.94072 8.28588 6.02585 7.90618 5.98498 7.5294C5.9441 7.15262 5.77952 6.80001 5.51697 6.52669C5.25442 6.25338 4.9087 6.07478 4.53386 6.01881C4.15903 5.96284 3.77621 6.03266 3.44527 6.21735C3.11433 6.40204 2.85392 6.6912 2.70476 7.0396C2.5556 7.388 2.5261 7.77601 2.62087 8.14296C2.71564 8.50991 2.92933 8.83512 3.22855 9.06772C3.52776 9.30033 3.89562 9.42722 4.27461 9.42857Z" fill="white"/>
</svg>
