<svg width="104" height="42" viewBox="0 0 104 42" fill="none" xmlns="http://www.w3.org/2000/svg">
<path d="M41.262 22.934L41.262 26H38.994L38.994 16.662H43.194C44.286 16.662 45.1447 16.9093 45.77 17.404C46.3953 17.8987 46.708 18.664 46.708 19.7C46.708 20.736 46.3953 21.534 45.77 22.094C45.1447 22.654 44.286 22.934 43.194 22.934H41.262ZM41.262 21.184H42.914C43.1567 21.184 43.362 21.1513 43.53 21.086C43.7073 21.0207 43.8473 20.9273 43.95 20.806C44.0527 20.6847 44.1273 20.5447 44.174 20.386C44.23 20.218 44.258 20.0407 44.258 19.854C44.258 19.63 44.23 19.434 44.174 19.266C44.1273 19.098 44.0527 18.9487 43.95 18.818C43.8473 18.6873 43.7073 18.5893 43.53 18.524C43.362 18.4587 43.1567 18.426 42.914 18.426H41.262V21.184ZM48.2909 26V16.662H50.5589V24.222H54.6189V26H48.2909ZM55.2445 26L58.7725 16.662H61.2505L64.5545 26H62.2305L59.2485 17.194L60.3545 17.096L57.3865 26H55.2445ZM57.2325 23.984L57.6945 22.318H61.9365L62.1465 23.984H57.2325ZM67.088 26V21.968L63.546 16.662H66.332L68.992 21.128H67.942L70.364 16.662H72.618L69.034 22.528L69.356 21.324V26H67.088ZM77.4951 26.182C76.0018 26.182 74.8584 25.79 74.0651 25.006C73.2811 24.2127 72.8891 22.99 72.8891 21.338C72.8891 19.7327 73.2671 18.5193 74.0231 17.698C74.7791 16.8673 75.9364 16.452 77.4951 16.452C77.9898 16.452 78.4891 16.5127 78.9931 16.634C79.4971 16.7553 79.9871 16.9233 80.4631 17.138V19.112C79.9778 18.7947 79.5111 18.566 79.0631 18.426C78.6151 18.286 78.1951 18.216 77.8031 18.216C77.2524 18.216 76.7858 18.314 76.4031 18.51C76.0298 18.706 75.7404 19.0327 75.5351 19.49C75.3391 19.9473 75.2411 20.5633 75.2411 21.338C75.2411 22.1127 75.3391 22.724 75.5351 23.172C75.7404 23.62 76.0391 23.942 76.4311 24.138C76.8324 24.3247 77.3224 24.418 77.9011 24.418C78.2464 24.418 78.6384 24.3527 79.0771 24.222C79.5158 24.0913 79.9778 23.8673 80.4631 23.55V25.524C80.2018 25.6547 79.9031 25.7713 79.5671 25.874C79.2404 25.9673 78.8951 26.042 78.5311 26.098C78.1764 26.154 77.8311 26.182 77.4951 26.182ZM82.1835 26V16.662H84.4515V26H82.1835ZM86.4354 26V16.662L88.3674 16.662L93.1694 23.13L92.4974 24.53V16.662H94.5834V26H92.8754L87.9894 19.616L88.5214 18.594V26H86.4354ZM96.5663 26V16.662H102.964V18.412H98.8343V20.442H102.418V22.206H98.8343V24.25H102.964V26H96.5663Z" fill="white"/>
<path d="M27.6403 17.3715L11.3476 26.1113C9.23634 27.2449 6.73804 25.6183 6.73804 23.1068V14.3669V5.62708C6.73804 3.11554 9.23634 1.48894 11.3476 2.6225L27.6403 11.3623C29.9623 12.6097 29.9623 16.1242 27.6403 17.3715Z" fill="white"/>
<path d="M12.0254 30.1339L20.9608 25.3384C22.1218 24.7147 23.4892 25.608 23.4892 26.986V31.7816V36.5771C23.4892 37.9551 22.1175 38.8484 20.9608 38.2248L12.0254 33.4292C10.7526 32.7466 10.7526 30.8166 12.0254 30.1339Z" fill="white"/>
<path d="M25.3314 22.6872L29.7346 20.3274C30.3065 20.0198 30.9816 20.4622 30.9816 21.1407V23.5005V25.8604C30.9816 26.5388 30.3065 26.9771 29.7346 26.6737L25.3314 24.3138C24.7036 23.9767 24.7036 23.0286 25.3314 22.6914V22.6872Z" fill="white"/>
<path d="M11.3476 21.489L27.6403 12.7491C27.98 12.5679 28.2681 12.3277 28.5089 12.0623C29.9064 13.6088 29.6226 16.3226 27.6403 17.3845L11.3476 26.1244C9.23634 27.2579 6.73804 25.6313 6.73804 23.1198V18.4844C6.73804 20.9959 9.23634 22.6225 11.3476 21.489Z" fill="white"/>
<path d="M20.9607 38.2302L12.0253 33.4347C10.7869 32.7731 10.7568 30.94 11.9178 30.2068C11.9522 30.2279 11.9866 30.2531 12.0253 30.2742L20.9607 35.0697C22.1217 35.6934 23.4891 34.8 23.4891 33.4221V36.5826C23.4891 37.9605 22.1174 38.8539 20.9607 38.2302Z" fill="white"/>
</svg>
