<svg width="16" height="16" viewBox="0 0 16 16" fill="none" xmlns="http://www.w3.org/2000/svg">
<path d="M14.4 4.0398C13.92 4.2398 13.44 4.3998 12.88 4.4398C13.44 4.1198 13.84 3.5998 14.04 2.9998C13.52 3.3198 12.96 3.5198 12.36 3.6398C11.88 3.1198 11.2 2.7998 10.48 2.7998C9.04 2.7998 7.84 3.9598 7.84 5.43981C7.84 5.63981 7.88 5.83981 7.92 6.03981C5.72 5.91981 3.8 4.8798 2.48 3.2798C2.24 3.6798 2.12 4.1198 2.12 4.5998C2.12 5.5198 2.6 6.3198 3.28 6.79981C2.84 6.79981 2.44 6.67981 2.08 6.4798V6.51981C2.08 7.79981 3 8.83981 4.2 9.07981C3.96 9.11981 3.76 9.15981 3.52 9.15981C3.36 9.15981 3.2 9.1598 3.04 9.1198C3.36 10.1598 4.36 10.9198 5.48 10.9598C4.6 11.6798 3.44 12.0798 2.2 12.0798C2 12.0798 1.76 12.0798 1.56 12.0398C2.76 12.7598 4.16 13.1998 5.64 13.1998C10.48 13.1998 13.12 9.19981 13.12 5.71981C13.12 5.59981 13.12 5.4798 13.12 5.3998C13.6 4.9998 14.04 4.5598 14.4 4.0398Z" fill="#DEE1E6"/>
</svg>
