<svg width="16" height="16" viewBox="0 0 16 16" fill="none" xmlns="http://www.w3.org/2000/svg">
<path d="M14.28 5.43998C14.28 5.43998 14.16 4.55998 13.76 4.15998C13.28 3.63998 12.72 3.63998 12.48 3.59998C10.68 3.47998 7.99998 3.47998 7.99998 3.47998C7.99998 3.47998 5.31998 3.47998 3.51998 3.59998C3.27998 3.63998 2.71998 3.63998 2.23998 4.15998C1.83998 4.55998 1.71998 5.43998 1.71998 5.43998C1.71998 5.43998 1.59998 6.47998 1.59998 7.51998L1.59998 8.47998C1.59998 9.51998 1.71998 10.56 1.71998 10.56C1.71998 10.56 1.83998 11.44 2.23998 11.84C2.71998 12.36 3.35998 12.32 3.63998 12.4C4.67998 12.48 7.99998 12.52 7.99998 12.52C7.99998 12.52 10.68 12.52 12.48 12.4C12.72 12.36 13.28 12.36 13.76 11.84C14.16 11.44 14.28 10.56 14.28 10.56C14.28 10.56 14.4 9.51998 14.4 8.47998V7.51998C14.4 6.47998 14.28 5.43998 14.28 5.43998ZM6.67998 9.67998L6.67998 6.07998L10.12 7.87998L6.67998 9.67998Z" fill="#DEE1E6"/>
</svg>
