<svg width="16" height="16" viewBox="0 0 16 16" fill="none" xmlns="http://www.w3.org/2000/svg">
<path d="M14.4 8.00007C14.3998 6.77704 14.0492 5.57967 13.3896 4.54972C12.7301 3.51977 11.7892 2.70037 10.6784 2.18852C9.56767 1.67667 8.3335 1.49381 7.12203 1.66158C5.91056 1.82936 4.77253 2.34074 3.84267 3.1352C2.91281 3.92965 2.23005 4.9739 1.87523 6.14433C1.52041 7.31476 1.50838 8.56235 1.84057 9.7394C2.17276 10.9165 2.83526 11.9737 3.74964 12.7859C4.66401 13.5981 5.79197 14.1314 6.99998 14.3225L6.99998 9.85007H5.37518V8.00007H6.99998L6.99998 6.59007C6.99998 4.98607 7.95558 4.10007 9.41718 4.10007C9.89718 4.10673 10.3761 4.14844 10.85 4.22487L10.85 5.80007L10.0428 5.80007C9.90522 5.7818 9.76532 5.79472 9.63344 5.83787C9.50156 5.88102 9.38108 5.95329 9.28093 6.04933C9.18078 6.14537 9.10352 6.26272 9.05489 6.39268C9.00625 6.52264 8.98748 6.66187 8.99998 6.80007L8.99998 8.00007L10.7752 8.00007L10.4912 9.85007H8.99998L8.99998 14.3225C10.5055 14.0843 11.8766 13.3166 12.8665 12.1576C13.8564 10.9986 14.4002 9.52431 14.4 8.00007Z" fill="#DEE1E6"/>
</svg>
