<svg width="36" height="42" viewBox="0 0 36 42" fill="none" xmlns="http://www.w3.org/2000/svg">
<path d="M27.6404 17.3715L11.3477 26.1113C9.2364 27.2449 6.7381 25.6183 6.7381 23.1068V14.3669V5.62708C6.7381 3.11554 9.2364 1.48894 11.3477 2.6225L27.6404 11.3623C29.9624 12.6097 29.9624 16.1242 27.6404 17.3715Z" fill="white"/>
<path d="M12.0254 30.1339L20.9608 25.3384C22.1218 24.7147 23.4892 25.608 23.4892 26.986V31.7816V36.5771C23.4892 37.9551 22.1175 38.8484 20.9608 38.2248L12.0254 33.4292C10.7526 32.7466 10.7526 30.8166 12.0254 30.1339Z" fill="white"/>
<path d="M25.3314 22.6872L29.7346 20.3274C30.3065 20.0198 30.9816 20.4622 30.9816 21.1407V23.5005V25.8604C30.9816 26.5388 30.3065 26.9771 29.7346 26.6737L25.3314 24.3138C24.7036 23.9767 24.7036 23.0286 25.3314 22.6914V22.6872Z" fill="white"/>
<path d="M11.3477 21.489L27.6404 12.7491C27.9801 12.5679 28.2682 12.3277 28.509 12.0623C29.9065 13.6088 29.6227 16.3226 27.6404 17.3845L11.3477 26.1244C9.2364 27.2579 6.7381 25.6313 6.7381 23.1198V18.4844C6.7381 20.9959 9.2364 22.6225 11.3477 21.489Z" fill="white"/>
<path d="M20.9608 38.2302L12.0254 33.4347C10.787 32.7731 10.7569 30.94 11.9179 30.2068C11.9523 30.2279 11.9867 30.2531 12.0254 30.2742L20.9608 35.0697C22.1218 35.6934 23.4892 34.8 23.4892 33.4221V36.5826C23.4892 37.9605 22.1175 38.8539 20.9608 38.2302Z" fill="white"/>
</svg>
